<svg version="1.1" id="Layer_1" xmlns="http://www.w3.org/2000/svg" xmlns:xlink="http://www.w3.org/1999/xlink" x="0px" y="0px"
	 width="100%" viewBox="0 0 636 509" enable-background="new 0 0 636 509" xml:space="preserve">
<path fill="#1B161E" opacity="1.000000" stroke="none" 
	d="
M400.000000,510.000000 
	C266.666656,510.000000 133.833328,510.000000 1.000000,510.000000 
	C1.000000,340.333344 1.000000,170.666672 1.000000,1.000000 
	C213.000000,1.000000 425.000000,1.000000 637.000000,1.000000 
	C637.000000,170.666672 637.000000,340.333344 637.000000,510.000000 
	C558.166687,510.000000 479.333344,510.000000 400.000000,510.000000 
M318.998230,345.001251 
	C318.998230,345.001251 319.044983,345.020477 319.730988,344.904999 
	C321.815704,341.507446 324.500702,338.331177 325.852631,334.663483 
	C328.225769,328.225433 327.724396,320.858521 332.661621,315.131317 
	C333.575592,314.071075 332.252136,311.082001 331.976379,308.324554 
	C332.290344,307.541229 332.604309,306.757935 333.619873,305.858185 
	C334.894653,303.614594 336.279480,301.425262 337.418335,299.114685 
	C339.105713,295.691193 336.715790,293.360474 334.325623,292.213531 
	C332.817047,291.489624 329.990845,292.360779 328.322693,293.414276 
	C326.284210,294.701660 324.904663,296.996765 323.113708,298.725128 
	C322.020264,299.780365 320.689056,300.589233 319.464661,301.508759 
	C318.934479,300.163666 318.404327,298.818542 318.028351,297.864624 
	C315.099976,300.521759 312.082001,303.260193 308.867462,305.325439 
	C308.971497,302.344391 307.450928,303.608826 306.189880,304.318695 
	C299.423950,308.127319 292.638245,311.902191 285.918640,315.791077 
	C283.426025,317.233673 282.769104,323.360260 285.125702,324.715118 
	C292.949921,329.213348 300.947144,333.410645 309.148773,338.380035 
	C310.682129,340.339203 307.057098,344.488464 311.998352,345.012939 
	C311.998352,345.012939 311.984741,345.035492 312.137115,345.697845 
	C317.779510,349.726837 317.779510,349.726837 318.998230,345.001251 
M148.701981,333.818665 
	C150.144531,333.077606 151.587082,332.336548 153.217285,331.499084 
	C150.524323,325.908173 147.953720,320.571320 145.156662,314.764252 
	C150.277908,314.164642 154.838242,313.630676 160.294373,312.991852 
	C149.551773,303.130737 139.485031,293.890045 129.148666,284.401855 
	C129.148666,298.808319 129.148666,312.354004 128.674744,326.263885 
	C130.523331,327.900146 130.732956,328.131012 133.236084,325.858398 
	C136.836105,322.589874 138.877014,323.616913 140.506805,327.679016 
	C141.717438,330.696411 143.147141,333.625946 144.853653,337.428925 
	C146.232162,335.962433 147.126465,335.011047 148.701981,333.818665 
M91.844894,189.341797 
	C89.656967,195.803696 87.660362,202.340347 85.180016,208.687973 
	C84.280373,210.990280 82.623726,213.421677 80.625648,214.794617 
	C72.952484,220.067123 65.064659,225.037903 57.135880,229.924866 
	C48.248932,235.402405 48.082729,243.982651 56.888554,249.551376 
	C60.824642,252.040527 64.517281,255.022522 68.686577,257.014374 
	C80.281967,262.553955 87.489883,271.235687 89.570221,284.029755 
	C89.754517,285.163086 90.309204,286.235077 90.681068,287.339172 
	C93.397186,295.403351 97.191078,297.081787 106.332970,293.696655 
	C102.828949,282.531494 99.364410,271.303253 95.706322,260.138428 
	C95.353874,259.062714 93.880386,258.258026 92.788437,257.538147 
	C88.899475,254.974335 84.943649,252.512222 81.025993,249.991608 
	C76.065186,246.799820 71.116959,243.588455 65.461250,239.931595 
	C74.815773,233.953751 83.466660,228.697952 91.771988,222.943420 
	C94.103958,221.327667 96.018723,218.481689 97.079559,215.788284 
	C99.390488,209.920914 101.199142,203.835678 102.879585,197.747437 
	C103.909569,194.015778 105.950478,192.820755 109.729744,192.914124 
	C119.051186,193.144333 128.382095,192.991531 137.709198,192.992569 
	C140.311356,192.992859 142.913528,192.992630 145.507797,192.992630 
	C145.485184,185.989304 143.663818,183.952972 137.975067,183.946732 
	C124.983772,183.932480 111.990768,184.070526 99.002197,183.885086 
	C95.292931,183.832138 92.865494,184.747070 91.844894,189.341797 
M617.840271,247.059082 
	C621.585449,242.684525 620.932129,234.925568 616.414490,232.012726 
	C608.169189,226.696320 599.890381,221.427353 591.519043,216.312988 
	C588.280579,214.334473 585.899780,212.114990 584.814087,208.218048 
	C582.985535,201.654709 580.648560,195.226151 578.328918,188.811951 
	C577.825195,187.419113 576.605225,185.397339 575.519897,185.264877 
	C571.868713,184.819244 568.129395,185.095383 563.712036,185.095383 
	C565.960999,192.416763 568.538879,198.624237 569.704712,205.086456 
	C571.748840,216.416779 577.297913,224.349792 587.964478,229.183624 
	C593.720459,231.792130 598.800232,235.892792 605.294250,240.026215 
	C599.892029,243.461578 595.690125,246.302383 591.330505,248.876053 
	C574.637451,258.730621 574.610596,258.696259 569.548767,276.001678 
	C567.761536,282.112000 566.023254,288.236572 564.092896,294.944427 
	C567.144104,294.944427 569.314270,294.712646 571.416443,294.992371 
	C575.880615,295.586395 577.989624,293.685547 579.135193,289.403931 
	C580.766724,283.305695 582.765625,277.271545 585.122925,271.417511 
	C586.156433,268.850677 588.021423,266.144806 590.268250,264.623993 
	C599.077515,258.661163 608.189575,253.145508 617.840271,247.059082 
M387.519135,265.966034 
	C396.881683,267.043915 405.797424,265.716003 413.946594,260.770294 
	C415.230743,259.990936 416.970245,258.547150 417.010101,257.360626 
	C417.280579,249.302536 417.151550,241.231003 417.151550,233.395782 
	C413.114624,233.395782 409.722992,233.395782 406.090454,233.395782 
	C406.090454,237.126083 406.095795,240.444901 406.089417,243.763687 
	C406.069946,253.883026 405.768494,254.215164 395.514648,255.485809 
	C395.349457,255.506287 395.185364,255.536896 395.019867,255.554001 
	C383.557953,256.739075 373.431030,248.793335 371.987274,237.483154 
	C370.350464,224.660553 377.579712,214.711914 389.702942,212.952011 
	C397.900085,211.762039 405.117126,213.870941 411.351654,219.416351 
	C413.870331,216.782684 416.110718,214.440018 418.420044,212.025299 
	C410.117676,203.060867 399.943298,201.066605 388.905060,201.998474 
	C373.612213,203.289536 361.822693,214.623627 359.723846,228.954071 
	C357.527649,243.949463 365.279541,261.964844 387.519135,265.966034 
M560.127136,254.583298 
	C567.988647,238.752579 561.419739,221.812714 545.677307,217.547729 
	C538.196106,215.520889 531.422363,217.471985 524.804077,222.634583 
	C524.804077,214.329453 524.804077,206.900452 524.804077,199.293030 
	C520.860474,199.293030 517.295471,199.293030 513.473816,199.293030 
	C513.473816,221.307770 513.473816,243.052856 513.473816,264.843048 
	C517.285950,264.843048 520.860901,264.843048 524.392517,264.843048 
	C524.605652,263.103210 524.780334,261.676666 524.972961,260.103790 
	C537.760254,269.552582 550.965942,267.633392 560.127136,254.583298 
M486.639893,217.637238 
	C477.467163,215.863052 468.921875,217.415741 460.553619,222.280991 
	C462.140289,225.339157 463.549042,228.054367 464.966431,230.786270 
	C471.952850,227.162567 478.827148,225.006561 486.090027,228.718384 
	C489.312286,230.365173 490.654144,233.267563 490.008026,237.305069 
	C486.226410,237.305069 482.569855,237.102280 478.946411,237.362076 
	C475.317993,237.622223 471.654144,238.064728 468.128967,238.929428 
	C462.792114,240.238510 459.568665,243.803513 458.694244,249.315887 
	C457.796509,254.975418 459.825745,259.443817 464.389557,262.774139 
	C471.238678,267.772217 481.964478,267.299500 489.076660,261.763458 
	C489.549194,261.395660 490.092957,261.119324 490.938934,260.591003 
	C491.104553,262.261139 491.226349,263.489410 491.351440,264.750854 
	C495.076996,264.750854 498.471832,264.750854 502.052673,264.750854 
	C502.052673,255.137512 502.145447,245.831024 502.027832,236.527206 
	C501.897400,226.209274 497.448090,220.624802 486.639893,217.637238 
M265.527374,243.499863 
	C265.527374,250.610519 265.527374,257.721191 265.527374,264.814514 
	C269.774170,264.814514 273.346741,264.814514 277.106506,264.814514 
	C277.106506,261.514526 277.064789,258.534485 277.115356,255.555984 
	C277.214172,249.736847 276.828796,243.844116 277.624908,238.118256 
	C278.695068,230.421097 284.189362,226.358932 291.081970,227.120102 
	C297.580109,227.837708 301.052460,232.393402 301.078766,240.325623 
	C301.105743,248.448044 301.084747,256.570648 301.084747,264.855408 
	C305.189911,264.855408 308.896912,264.855408 312.876068,264.855408 
	C312.876068,255.247971 313.057922,245.942734 312.819092,236.648300 
	C312.624786,229.086624 310.155212,222.376556 302.667419,219.114105 
	C294.373688,215.500519 286.176483,215.612854 278.657837,221.429626 
	C278.308441,221.699982 277.868927,221.853882 277.306549,222.148300 
	C276.980255,220.613556 276.698364,219.287735 276.470306,218.214981 
	C272.644836,218.214981 269.239899,218.214981 265.525970,218.214981 
	C265.525970,226.537994 265.525970,234.519058 265.527374,243.499863 
M338.575836,243.435684 
	C338.575836,238.165115 338.575836,232.894547 338.575836,227.254883 
	C343.080750,227.254883 346.999054,227.254883 350.842346,227.254883 
	C350.842346,223.979034 350.842346,221.104401 350.842346,217.869629 
	C346.528870,217.869629 342.583313,217.869629 338.664490,217.869629 
	C338.474884,213.753326 338.302521,210.011505 338.132355,206.317993 
	C334.129456,206.317993 330.680450,206.317993 326.831299,206.317993 
	C326.831299,210.274231 326.831299,214.022156 326.831299,218.260284 
	C324.032318,218.260284 321.633423,218.260284 319.368225,218.260284 
	C319.368225,221.520752 319.368225,224.258743 319.368225,227.023132 
	C321.931335,227.208298 324.189850,227.371460 326.812225,227.560913 
	C326.812225,235.023087 326.918579,242.151855 326.780304,249.275879 
	C326.658264,255.565460 328.407898,261.014221 334.202545,263.998535 
	C340.755890,267.373627 347.505920,267.208252 354.112396,263.554871 
	C352.916168,260.486420 351.856354,257.767883 350.804718,255.070236 
	C342.044220,258.237030 338.949005,256.200470 338.616730,247.407852 
	C338.579010,246.409714 338.593781,245.409607 338.575836,243.435684 
M118.260406,260.299927 
	C118.327621,261.753326 118.394844,263.206696 118.469139,264.812988 
	C122.475456,264.812988 126.194275,264.812988 130.257904,264.812988 
	C130.257904,256.785431 130.257904,249.015610 130.257904,240.616394 
	C140.791855,240.616394 150.993164,240.616394 161.319244,240.616394 
	C161.319244,237.056870 161.319244,234.134445 161.319244,231.146835 
	C146.908401,231.146835 132.721817,231.146835 118.263252,231.146835 
	C118.263252,240.780930 118.263252,250.058670 118.260406,260.299927 
M442.138611,221.878540 
	C440.170410,222.196823 440.170410,222.196823 439.386932,218.119751 
	C435.974457,218.119751 432.555603,218.119751 428.933319,218.119751 
	C428.933319,233.825897 428.933319,249.258194 428.933319,264.891754 
	C432.669586,264.891754 436.281738,264.891754 440.269653,264.891754 
	C440.269653,258.293335 440.262451,251.822006 440.271149,245.350708 
	C440.288910,232.158569 442.942078,229.099258 455.776123,227.637833 
	C455.776123,224.237747 455.776123,220.819214 455.776123,215.719208 
	C450.890289,217.830338 446.801147,219.597229 442.138611,221.878540 
M173.803253,235.500671 
	C173.803253,245.258179 173.803253,255.015701 173.803253,264.830505 
	C177.955765,264.830505 181.532120,264.830505 185.456039,264.830505 
	C185.456039,263.258118 185.458939,261.947418 185.455551,260.636719 
	C185.438782,254.140457 185.161697,247.632019 185.466522,241.150925 
	C185.867142,232.632126 190.150116,228.586044 198.676331,227.958542 
	C199.436386,227.902588 200.191147,227.774994 200.779007,227.701752 
	C200.779007,223.919601 200.779007,220.523056 200.779007,215.761093 
	C195.101196,218.145309 190.219757,220.195114 185.185516,222.309097 
	C185.110718,221.297440 184.997345,219.764206 184.880966,218.190338 
	C181.012100,218.190338 177.457993,218.190338 173.803101,218.190338 
	C173.803101,223.858002 173.803101,229.179443 173.803253,235.500671 
M237.579514,254.465622 
	C227.776382,258.459351 221.441956,255.547073 217.772766,245.526642 
	C217.424820,244.576431 216.150452,243.406815 215.222885,243.328735 
	C212.007233,243.058029 208.754807,243.224289 205.440536,243.224289 
	C207.382935,258.501160 219.178467,267.611115 234.101837,266.126801 
	C246.637161,264.880066 256.862305,254.356094 255.990601,243.391907 
	C252.408997,243.391907 248.811096,243.391907 246.483307,243.391907 
	C243.376282,247.435989 240.820221,250.762939 237.579514,254.465622 
M150.493958,212.757568 
	C155.278015,212.757568 160.062073,212.757568 164.936020,212.757568 
	C164.936020,209.285919 164.936020,206.073105 164.936020,203.046112 
	C149.229370,203.046112 133.848099,203.046112 118.458031,203.046112 
	C118.458031,206.335220 118.458031,209.262238 118.458031,212.757355 
	C128.975159,212.757355 139.235855,212.757355 150.493958,212.757568 
M340.978882,329.802948 
	C340.144836,332.284088 339.310760,334.765228 338.476715,337.246368 
	C338.941345,337.470398 339.406006,337.694458 339.870636,337.918518 
	C347.305756,333.617462 354.774017,329.372131 362.157501,324.984222 
	C364.638580,323.509705 364.862976,317.437714 362.384186,315.976990 
	C354.857666,311.541626 347.183716,307.356445 339.680695,303.137695 
	C337.837128,308.615265 339.873077,311.575043 344.602722,313.638824 
	C348.653229,315.406250 352.351410,317.981049 356.765411,320.520966 
	C351.343140,323.695557 346.485809,326.539368 340.978882,329.802948 
M220.667572,231.248932 
	C221.492996,230.445068 222.189545,229.187485 223.164642,228.910507 
	C229.829483,227.017303 228.754791,222.125931 228.150314,217.252579 
	C216.159149,217.874817 206.128448,227.275955 206.039536,237.780670 
	C209.812592,237.780670 213.580994,237.780670 217.073807,237.780670 
	C218.222260,235.606445 219.215042,233.726929 220.667572,231.248932 
M245.218338,237.924042 
	C248.839874,237.924042 252.461395,237.924042 256.092407,237.924042 
	C255.359131,226.516968 244.684921,216.644531 234.100739,217.488144 
	C234.100739,220.436752 234.100739,223.396286 234.100739,226.569458 
	C239.563950,228.301117 243.014496,232.001511 245.218338,237.924042 
M124.031342,291.270752 
	C121.380592,302.653625 118.729843,314.036499 115.978333,325.852081 
	C124.239761,323.935364 125.802353,322.149200 125.834694,315.432526 
	C125.861176,309.932770 126.040871,304.424316 125.787514,298.936584 
	C125.659172,296.156525 124.723595,293.413727 124.031342,291.270752 
M130.419724,223.246796 
	C130.419724,221.658646 130.419724,220.070496 130.419724,218.470261 
	C126.161491,218.470261 122.458626,218.470261 118.554184,218.470261 
	C118.554184,220.785843 118.554184,222.782791 118.554184,225.434433 
	C122.728447,224.959030 126.515503,224.527710 130.419724,223.246796 
z"/>
<path fill="#5C1C5D" opacity="1.000000" stroke="none" 
	d="
M92.002876,188.977844 
	C92.865494,184.747070 95.292931,183.832138 99.002197,183.885086 
	C111.990768,184.070526 124.983772,183.932480 137.975067,183.946732 
	C143.663818,183.952972 145.485184,185.989304 145.507797,192.992630 
	C142.913528,192.992630 140.311356,192.992859 137.709198,192.992569 
	C128.382095,192.991531 119.051186,193.144333 109.729744,192.914124 
	C105.950478,192.820755 103.909569,194.015778 102.879585,197.747437 
	C101.199142,203.835678 99.390488,209.920914 97.079559,215.788284 
	C96.018723,218.481689 94.103958,221.327667 91.771988,222.943420 
	C83.466660,228.697952 74.815773,233.953751 65.461250,239.931595 
	C71.116959,243.588455 76.065186,246.799820 81.025993,249.991608 
	C84.943649,252.512222 88.899475,254.974335 92.788437,257.538147 
	C93.880386,258.258026 95.353874,259.062714 95.706322,260.138428 
	C99.364410,271.303253 102.828949,282.531494 106.332970,293.696655 
	C97.191078,297.081787 93.397186,295.403351 90.681068,287.339172 
	C90.309204,286.235077 89.754517,285.163086 89.570221,284.029755 
	C87.489883,271.235687 80.281967,262.553955 68.686577,257.014374 
	C64.517281,255.022522 60.824642,252.040527 56.888554,249.551376 
	C48.082729,243.982651 48.248932,235.402405 57.135880,229.924866 
	C65.064659,225.037903 72.952484,220.067123 80.625648,214.794617 
	C82.623726,213.421677 84.280373,210.990280 85.180016,208.687973 
	C87.660362,202.340347 89.656967,195.803696 92.002876,188.977844 
z"/>
<path fill="#5A1C5C" opacity="1.000000" stroke="none" 
	d="
M617.514771,247.261414 
	C608.189575,253.145508 599.077515,258.661163 590.268250,264.623993 
	C588.021423,266.144806 586.156433,268.850677 585.122925,271.417511 
	C582.765625,277.271545 580.766724,283.305695 579.135193,289.403931 
	C577.989624,293.685547 575.880615,295.586395 571.416443,294.992371 
	C569.314270,294.712646 567.144104,294.944427 564.092896,294.944427 
	C566.023254,288.236572 567.761536,282.112000 569.548767,276.001678 
	C574.610596,258.696259 574.637451,258.730621 591.330505,248.876053 
	C595.690125,246.302383 599.892029,243.461578 605.294250,240.026215 
	C598.800232,235.892792 593.720459,231.792130 587.964478,229.183624 
	C577.297913,224.349792 571.748840,216.416779 569.704712,205.086456 
	C568.538879,198.624237 565.960999,192.416763 563.712036,185.095383 
	C568.129395,185.095383 571.868713,184.819244 575.519897,185.264877 
	C576.605225,185.397339 577.825195,187.419113 578.328918,188.811951 
	C580.648560,195.226151 582.985535,201.654709 584.814087,208.218048 
	C585.899780,212.114990 588.280579,214.334473 591.519043,216.312988 
	C599.890381,221.427353 608.169189,226.696320 616.414490,232.012726 
	C620.932129,234.925568 621.585449,242.684525 617.514771,247.261414 
z"/>
<path fill="#F9F9F9" opacity="1.000000" stroke="none" 
	d="
M387.100281,265.912292 
	C365.279541,261.964844 357.527649,243.949463 359.723846,228.954071 
	C361.822693,214.623627 373.612213,203.289536 388.905060,201.998474 
	C399.943298,201.066605 410.117676,203.060867 418.420044,212.025299 
	C416.110718,214.440018 413.870331,216.782684 411.351654,219.416351 
	C405.117126,213.870941 397.900085,211.762039 389.702942,212.952011 
	C377.579712,214.711914 370.350464,224.660553 371.987274,237.483154 
	C373.431030,248.793335 383.557953,256.739075 395.019867,255.554001 
	C395.185364,255.536896 395.349457,255.506287 395.514648,255.485809 
	C405.768494,254.215164 406.069946,253.883026 406.089417,243.763687 
	C406.095795,240.444901 406.090454,237.126083 406.090454,233.395782 
	C409.722992,233.395782 413.114624,233.395782 417.151550,233.395782 
	C417.151550,241.231003 417.280579,249.302536 417.010101,257.360626 
	C416.970245,258.547150 415.230743,259.990936 413.946594,260.770294 
	C405.797424,265.716003 396.881683,267.043915 387.100281,265.912292 
z"/>
<path fill="#F7F7F7" opacity="1.000000" stroke="none" 
	d="
M559.974854,254.918579 
	C550.965942,267.633392 537.760254,269.552582 524.972961,260.103790 
	C524.780334,261.676666 524.605652,263.103210 524.392517,264.843048 
	C520.860901,264.843048 517.285950,264.843048 513.473816,264.843048 
	C513.473816,243.052856 513.473816,221.307770 513.473816,199.293030 
	C517.295471,199.293030 520.860474,199.293030 524.804077,199.293030 
	C524.804077,206.900452 524.804077,214.329453 524.804077,222.634583 
	C531.422363,217.471985 538.196106,215.520889 545.677307,217.547729 
	C561.419739,221.812714 567.988647,238.752579 559.974854,254.918579 
M532.863464,228.000641 
	C526.553894,230.832535 524.445068,236.060623 524.722717,242.539291 
	C524.950195,247.846008 526.963013,252.237793 532.031921,254.574036 
	C537.803467,257.234039 544.339539,255.788437 548.328979,251.183380 
	C552.378967,246.508514 552.808105,238.640320 549.317993,233.048477 
	C546.244507,228.124130 540.333801,226.125397 532.863464,228.000641 
z"/>
<path fill="#F7F7F7" opacity="1.000000" stroke="none" 
	d="
M487.049377,217.746246 
	C497.448090,220.624802 501.897400,226.209274 502.027832,236.527206 
	C502.145447,245.831024 502.052673,255.137512 502.052673,264.750854 
	C498.471832,264.750854 495.076996,264.750854 491.351440,264.750854 
	C491.226349,263.489410 491.104553,262.261139 490.938934,260.591003 
	C490.092957,261.119324 489.549194,261.395660 489.076660,261.763458 
	C481.964478,267.299500 471.238678,267.772217 464.389557,262.774139 
	C459.825745,259.443817 457.796509,254.975418 458.694244,249.315887 
	C459.568665,243.803513 462.792114,240.238510 468.128967,238.929428 
	C471.654144,238.064728 475.317993,237.622223 478.946411,237.362076 
	C482.569855,237.102280 486.226410,237.305069 490.008026,237.305069 
	C490.654144,233.267563 489.312286,230.365173 486.090027,228.718384 
	C478.827148,225.006561 471.952850,227.162567 464.966431,230.786270 
	C463.549042,228.054367 462.140289,225.339157 460.553619,222.280991 
	C468.921875,217.415741 477.467163,215.863052 487.049377,217.746246 
M476.109283,244.876556 
	C472.580994,245.543106 470.171448,247.710632 470.428436,251.218033 
	C470.569672,253.144943 472.186127,255.768433 473.872986,256.618896 
	C478.083160,258.741577 482.577362,258.240479 486.552704,255.495209 
	C490.287598,252.915955 490.758789,249.191757 489.982483,244.798340 
	C485.540161,244.798340 481.268890,244.798340 476.109283,244.876556 
z"/>
<path fill="#FBFBFB" opacity="1.000000" stroke="none" 
	d="
M265.526672,242.999985 
	C265.525970,234.519058 265.525970,226.537994 265.525970,218.214981 
	C269.239899,218.214981 272.644836,218.214981 276.470306,218.214981 
	C276.698364,219.287735 276.980255,220.613556 277.306549,222.148300 
	C277.868927,221.853882 278.308441,221.699982 278.657837,221.429626 
	C286.176483,215.612854 294.373688,215.500519 302.667419,219.114105 
	C310.155212,222.376556 312.624786,229.086624 312.819092,236.648300 
	C313.057922,245.942734 312.876068,255.247971 312.876068,264.855408 
	C308.896912,264.855408 305.189911,264.855408 301.084747,264.855408 
	C301.084747,256.570648 301.105743,248.448044 301.078766,240.325623 
	C301.052460,232.393402 297.580109,227.837708 291.081970,227.120102 
	C284.189362,226.358932 278.695068,230.421097 277.624908,238.118256 
	C276.828796,243.844116 277.214172,249.736847 277.115356,255.555984 
	C277.064789,258.534485 277.106506,261.514526 277.106506,264.814514 
	C273.346741,264.814514 269.774170,264.814514 265.527374,264.814514 
	C265.527374,257.721191 265.527374,250.610519 265.526672,242.999985 
z"/>
<path fill="#F9F9F9" opacity="1.000000" stroke="none" 
	d="
M338.580017,243.923035 
	C338.593781,245.409607 338.579010,246.409714 338.616730,247.407852 
	C338.949005,256.200470 342.044220,258.237030 350.804718,255.070236 
	C351.856354,257.767883 352.916168,260.486420 354.112396,263.554871 
	C347.505920,267.208252 340.755890,267.373627 334.202545,263.998535 
	C328.407898,261.014221 326.658264,255.565460 326.780304,249.275879 
	C326.918579,242.151855 326.812225,235.023087 326.812225,227.560913 
	C324.189850,227.371460 321.931335,227.208298 319.368225,227.023132 
	C319.368225,224.258743 319.368225,221.520752 319.368225,218.260284 
	C321.633423,218.260284 324.032318,218.260284 326.831299,218.260284 
	C326.831299,214.022156 326.831299,210.274231 326.831299,206.317993 
	C330.680450,206.317993 334.129456,206.317993 338.132355,206.317993 
	C338.302521,210.011505 338.474884,213.753326 338.664490,217.869629 
	C342.583313,217.869629 346.528870,217.869629 350.842346,217.869629 
	C350.842346,221.104401 350.842346,223.979034 350.842346,227.254883 
	C346.999054,227.254883 343.080750,227.254883 338.575836,227.254883 
	C338.575836,232.894547 338.575836,238.165115 338.580017,243.923035 
z"/>
<path fill="#F6F6F6" opacity="1.000000" stroke="none" 
	d="
M118.261826,259.818176 
	C118.263252,250.058670 118.263252,240.780930 118.263252,231.146835 
	C132.721817,231.146835 146.908401,231.146835 161.319244,231.146835 
	C161.319244,234.134445 161.319244,237.056870 161.319244,240.616394 
	C150.993164,240.616394 140.791855,240.616394 130.257904,240.616394 
	C130.257904,249.015610 130.257904,256.785431 130.257904,264.812988 
	C126.194275,264.812988 122.475456,264.812988 118.469139,264.812988 
	C118.394844,263.206696 118.327621,261.753326 118.261826,259.818176 
z"/>
<path fill="#FCFCFC" opacity="1.000000" stroke="none" 
	d="
M442.425323,221.621323 
	C446.801147,219.597229 450.890289,217.830338 455.776123,215.719208 
	C455.776123,220.819214 455.776123,224.237747 455.776123,227.637833 
	C442.942078,229.099258 440.288910,232.158569 440.271149,245.350708 
	C440.262451,251.822006 440.269653,258.293335 440.269653,264.891754 
	C436.281738,264.891754 432.669586,264.891754 428.933319,264.891754 
	C428.933319,249.258194 428.933319,233.825897 428.933319,218.119751 
	C432.555603,218.119751 435.974457,218.119751 439.386932,218.119751 
	C440.170410,222.196823 440.170410,222.196823 442.425323,221.621323 
z"/>
<path fill="#FCFCFC" opacity="1.000000" stroke="none" 
	d="
M173.803177,235.000763 
	C173.803101,229.179443 173.803101,223.858002 173.803101,218.190338 
	C177.457993,218.190338 181.012100,218.190338 184.880966,218.190338 
	C184.997345,219.764206 185.110718,221.297440 185.185516,222.309097 
	C190.219757,220.195114 195.101196,218.145309 200.779007,215.761093 
	C200.779007,220.523056 200.779007,223.919601 200.779007,227.701752 
	C200.191147,227.774994 199.436386,227.902588 198.676331,227.958542 
	C190.150116,228.586044 185.867142,232.632126 185.466522,241.150925 
	C185.161697,247.632019 185.438782,254.140457 185.455551,260.636719 
	C185.458939,261.947418 185.456039,263.258118 185.456039,264.830505 
	C181.532120,264.830505 177.955765,264.830505 173.803253,264.830505 
	C173.803253,255.015701 173.803253,245.258179 173.803177,235.000763 
z"/>
<path fill="#F9F9F9" opacity="1.000000" stroke="none" 
	d="
M129.148651,325.899689 
	C129.148666,312.354004 129.148666,298.808319 129.148666,284.401855 
	C139.485031,293.890045 149.551773,303.130737 160.294373,312.991852 
	C154.838242,313.630676 150.277908,314.164642 145.156662,314.764252 
	C147.953720,320.571320 150.524323,325.908173 153.217285,331.499084 
	C151.587082,332.336548 150.144531,333.077606 148.115463,333.684052 
	C144.887817,328.279205 142.246704,323.008942 139.349899,317.228485 
	C135.635910,320.385437 132.392288,323.142548 129.148651,325.899689 
z"/>
<path fill="#201823" opacity="1.000000" stroke="none" 
	d="
M309.064026,305.998627 
	C312.082001,303.260193 315.099976,300.521759 318.028351,297.864624 
	C318.404327,298.818542 318.934479,300.163666 319.464661,301.508759 
	C320.689056,300.589233 322.020264,299.780365 323.113708,298.725128 
	C324.904663,296.996765 326.284210,294.701660 328.322693,293.414276 
	C329.990845,292.360779 332.817047,291.489624 334.325623,292.213531 
	C336.715790,293.360474 339.105713,295.691193 337.418335,299.114685 
	C336.279480,301.425262 334.894653,303.614594 333.296814,305.532013 
	C333.784546,302.268799 334.595337,299.331726 335.406128,296.394684 
	C334.940094,295.925293 334.474060,295.455902 334.007996,294.986542 
	C331.977264,296.284698 328.767609,297.146973 328.101135,298.949554 
	C322.459778,314.207397 317.282349,329.636780 311.965607,345.014648 
	C307.057098,344.488464 310.682129,340.339203 308.968567,337.644836 
	C309.680603,332.319763 307.696136,329.637299 303.519165,327.703156 
	C299.404633,325.798004 295.629944,323.158844 291.194580,320.539612 
	C296.165405,317.707855 300.353149,314.986450 304.831696,312.884705 
	C308.007812,311.394165 309.329834,309.327362 309.064026,305.998627 
z"/>
<path fill="#F6F6F6" opacity="1.000000" stroke="none" 
	d="
M237.921844,254.277740 
	C240.820221,250.762939 243.376282,247.435989 246.483307,243.391907 
	C248.811096,243.391907 252.408997,243.391907 255.990601,243.391907 
	C256.862305,254.356094 246.637161,264.880066 234.101837,266.126801 
	C219.178467,267.611115 207.382935,258.501160 205.440536,243.224289 
	C208.754807,243.224289 212.007233,243.058029 215.222885,243.328735 
	C216.150452,243.406815 217.424820,244.576431 217.772766,245.526642 
	C221.441956,255.547073 227.776382,258.459351 237.921844,254.277740 
z"/>
<path fill="#F5F5F5" opacity="1.000000" stroke="none" 
	d="
M149.995255,212.757462 
	C139.235855,212.757355 128.975159,212.757355 118.458031,212.757355 
	C118.458031,209.262238 118.458031,206.335220 118.458031,203.046112 
	C133.848099,203.046112 149.229370,203.046112 164.936020,203.046112 
	C164.936020,206.073105 164.936020,209.285919 164.936020,212.757568 
	C160.062073,212.757568 155.278015,212.757568 149.995255,212.757462 
z"/>
<path fill="#F2F2F3" opacity="1.000000" stroke="none" 
	d="
M308.965759,305.662048 
	C309.329834,309.327362 308.007812,311.394165 304.831696,312.884705 
	C300.353149,314.986450 296.165405,317.707855 291.194580,320.539612 
	C295.629944,323.158844 299.404633,325.798004 303.519165,327.703156 
	C307.696136,329.637299 309.680603,332.319763 308.833191,337.316528 
	C300.947144,333.410645 292.949921,329.213348 285.125702,324.715118 
	C282.769104,323.360260 283.426025,317.233673 285.918640,315.791077 
	C292.638245,311.902191 299.423950,308.127319 306.189880,304.318695 
	C307.450928,303.608826 308.971497,302.344391 308.965759,305.662048 
z"/>
<path fill="#F2F2F3" opacity="1.000000" stroke="none" 
	d="
M341.303650,329.593079 
	C346.485809,326.539368 351.343140,323.695557 356.765411,320.520966 
	C352.351410,317.981049 348.653229,315.406250 344.602722,313.638824 
	C339.873077,311.575043 337.837128,308.615265 339.680695,303.137695 
	C347.183716,307.356445 354.857666,311.541626 362.384186,315.976990 
	C364.862976,317.437714 364.638580,323.509705 362.157501,324.984222 
	C354.774017,329.372131 347.305756,333.617462 339.870636,337.918518 
	C339.406006,337.694458 338.941345,337.470398 338.476715,337.246368 
	C339.310760,334.765228 340.144836,332.284088 341.303650,329.593079 
z"/>
<path fill="#5D205E" opacity="1.000000" stroke="none" 
	d="
M311.981995,345.013794 
	C317.282349,329.636780 322.459778,314.207397 328.101135,298.949554 
	C328.767609,297.146973 331.977264,296.284698 334.007996,294.986542 
	C334.474060,295.455902 334.940094,295.925293 335.406128,296.394684 
	C334.595337,299.331726 333.784546,302.268799 332.945984,305.590210 
	C332.604309,306.757935 332.290344,307.541229 331.721405,308.909424 
	C327.325958,321.336334 323.185486,333.178406 319.044983,345.020477 
	C319.044983,345.020477 318.998230,345.001251 318.569885,345.027222 
	C316.089264,345.047272 314.036987,345.041382 311.984741,345.035492 
	C311.984741,345.035492 311.998352,345.012939 311.981995,345.013794 
z"/>
<path fill="#F7F7F7" opacity="1.000000" stroke="none" 
	d="
M220.437714,231.548157 
	C219.215042,233.726929 218.222260,235.606445 217.073807,237.780670 
	C213.580994,237.780670 209.812592,237.780670 206.039536,237.780670 
	C206.128448,227.275955 216.159149,217.874817 228.150314,217.252579 
	C228.754791,222.125931 229.829483,227.017303 223.164642,228.910507 
	C222.189545,229.187485 221.492996,230.445068 220.437714,231.548157 
z"/>
<path fill="#F9F9F9" opacity="1.000000" stroke="none" 
	d="
M244.847519,237.726959 
	C243.014496,232.001511 239.563950,228.301117 234.100739,226.569458 
	C234.100739,223.396286 234.100739,220.436752 234.100739,217.488144 
	C244.684921,216.644531 255.359131,226.516968 256.092407,237.924042 
	C252.461395,237.924042 248.839874,237.924042 244.847519,237.726959 
z"/>
<path fill="#601F62" opacity="1.000000" stroke="none" 
	d="
M124.092163,290.962402 
	C124.723595,293.413727 125.659172,296.156525 125.787514,298.936584 
	C126.040871,304.424316 125.861176,309.932770 125.834694,315.432526 
	C125.802353,322.149200 124.239761,323.935364 115.978333,325.852081 
	C118.729843,314.036499 121.380592,302.653625 124.092163,290.962402 
z"/>
<path fill="#553A54" opacity="1.000000" stroke="none" 
	d="
M128.911697,326.081787 
	C132.392288,323.142548 135.635910,320.385437 139.349899,317.228485 
	C142.246704,323.008942 144.887817,328.279205 147.774841,333.804565 
	C147.126465,335.011047 146.232162,335.962433 144.853653,337.428925 
	C143.147141,333.625946 141.717438,330.696411 140.506805,327.679016 
	C138.877014,323.616913 136.836105,322.589874 133.236084,325.858398 
	C130.732956,328.131012 130.523331,327.900146 128.911697,326.081787 
z"/>
<path fill="#201823" opacity="1.000000" stroke="none" 
	d="
M319.388000,344.962738 
	C323.185486,333.178406 327.325958,321.336334 331.713898,309.238708 
	C332.252136,311.082001 333.575592,314.071075 332.661621,315.131317 
	C327.724396,320.858521 328.225769,328.225433 325.852631,334.663483 
	C324.500702,338.331177 321.815704,341.507446 319.388000,344.962738 
z"/>
<path fill="#ECECED" opacity="1.000000" stroke="none" 
	d="
M130.361145,223.671600 
	C126.515503,224.527710 122.728447,224.959030 118.554184,225.434433 
	C118.554184,222.782791 118.554184,220.785843 118.554184,218.470261 
	C122.458626,218.470261 126.161491,218.470261 130.419724,218.470261 
	C130.419724,220.070496 130.419724,221.658646 130.361145,223.671600 
z"/>
<path fill="#201823" opacity="1.000000" stroke="none" 
	d="
M312.060913,345.366669 
	C314.036987,345.041382 316.089264,345.047272 318.581970,345.049438 
	C317.779510,349.726837 317.779510,349.726837 312.060913,345.366669 
z"/>
<path fill="#1E1A21" opacity="1.000000" stroke="none" 
	d="
M533.236450,227.868591 
	C540.333801,226.125397 546.244507,228.124130 549.317993,233.048477 
	C552.808105,238.640320 552.378967,246.508514 548.328979,251.183380 
	C544.339539,255.788437 537.803467,257.234039 532.031921,254.574036 
	C526.963013,252.237793 524.950195,247.846008 524.722717,242.539291 
	C524.445068,236.060623 526.553894,230.832535 533.236450,227.868591 
z"/>
<path fill="#201D24" opacity="1.000000" stroke="none" 
	d="
M476.553467,244.837448 
	C481.268890,244.798340 485.540161,244.798340 489.982483,244.798340 
	C490.758789,249.191757 490.287598,252.915955 486.552704,255.495209 
	C482.577362,258.240479 478.083160,258.741577 473.872986,256.618896 
	C472.186127,255.768433 470.569672,253.144943 470.428436,251.218033 
	C470.171448,247.710632 472.580994,245.543106 476.553467,244.837448 
z"/>
</svg>